<svg width="64" height="64" viewBox="0 0 64 64" fill="none" xmlns="http://www.w3.org/2000/svg">
<rect x="1.28887" y="0.37993" width="61.5149" height="63.2211" rx="12.4163" fill="white"/>
<rect x="1.28887" y="0.37993" width="61.5149" height="63.2211" rx="12.4163" stroke="#F0F0F0" stroke-width="0.759859"/>
<g clip-path="url(#clip0_612_47688)">
<path fill-rule="evenodd" clip-rule="evenodd" d="M31.7497 20.0941C38.411 20.0941 43.811 25.3861 43.811 31.9141C43.811 38.4422 38.411 43.7342 31.7497 43.7342C25.0885 43.7342 19.6885 38.4422 19.6885 31.9141C19.6885 25.3861 25.0885 20.0941 31.7497 20.0941ZM31.3138 20.9786C29.9378 21.1684 28.6276 22.2519 27.6105 24.0641C27.3155 24.5898 27.0493 25.1705 26.8173 25.7975C28.2003 25.457 29.7195 25.2562 31.3138 25.2251V20.9786ZM25.798 26.0814C26.0864 25.1942 26.4393 24.3779 26.8466 23.6523C27.3507 22.754 27.9491 21.9782 28.6233 21.3824C24.9573 22.4258 22.0677 25.2576 21.003 28.8502C21.611 28.1895 22.4026 27.6031 23.3193 27.1091C24.0597 26.71 24.8927 26.3641 25.798 26.0814ZM25.5083 27.0804C25.1608 28.4357 24.9559 29.9245 24.9242 31.4869H20.591C20.7847 30.1384 21.8903 28.8544 23.7395 27.8578C24.2759 27.5686 24.8685 27.3078 25.5083 27.0804ZM25.7963 31.4869C25.8323 29.7818 26.0827 28.181 26.4972 26.7666C27.9404 26.3605 29.5739 26.115 31.3138 26.0797V27.9254C30.6647 29.5538 29.3409 30.8511 27.6791 31.4869H25.7963ZM24.9242 32.3414H20.591C20.7847 33.6899 21.8903 34.9738 23.7395 35.9705C24.2759 36.2597 24.8685 36.5205 25.5083 36.7479C25.1608 35.3926 24.9559 33.9038 24.9242 32.3414ZM26.4972 37.0617C26.0827 35.6473 25.8323 34.0465 25.7963 32.3414H27.6791C29.3409 32.9772 30.6648 34.2745 31.3138 35.9029V37.7486C29.5739 37.7133 27.9404 37.4678 26.4972 37.0617ZM25.798 37.7469C24.8927 37.4642 24.0597 37.1183 23.3193 36.7192C22.4026 36.2252 21.611 35.6388 21.003 34.9781C22.0677 38.5707 24.9573 41.4026 28.6233 42.4459C27.9491 41.8501 27.3507 41.0743 26.8466 40.1759C26.4393 39.4504 26.0864 38.6341 25.798 37.7469ZM31.3138 42.8497C29.9378 42.6599 28.6276 41.5764 27.6105 39.7642C27.3155 39.2386 27.0493 38.6578 26.8173 38.0308C28.2003 38.3713 29.7195 38.5721 31.3138 38.6032V42.8497ZM34.8762 42.4459C35.5504 41.8501 36.1487 41.0743 36.6529 40.1759C37.0601 39.4504 37.413 38.6341 37.7015 37.7469C38.6068 37.4642 39.4397 37.1183 40.1802 36.7192C41.0968 36.2252 41.8885 35.6388 42.4964 34.9781C41.4318 38.5707 38.5421 41.4026 34.8762 42.4459ZM36.6821 38.0308C36.4501 38.6578 36.1839 39.2386 35.8889 39.7642C34.8719 41.5764 33.5617 42.6599 32.1857 42.8497V38.6032C33.78 38.5721 35.2992 38.3713 36.6821 38.0308ZM37.9912 36.7479C38.631 36.5205 39.2236 36.2597 39.76 35.9705C41.6091 34.9738 42.7148 33.6899 42.9084 32.3414H38.5753C38.5436 33.9038 38.3387 35.3926 37.9912 36.7479ZM37.7032 32.3414C37.6672 34.0465 37.4167 35.6473 37.0023 37.0617C35.559 37.4678 33.9256 37.7133 32.1857 37.7486V35.9043C32.8345 34.2753 34.1587 32.9774 35.8209 32.3414H37.7032ZM38.5753 31.4869H42.9084C42.7148 30.1384 41.6091 28.8544 39.76 27.8578C39.2236 27.5686 38.631 27.3078 37.9912 27.0804C38.3387 28.4357 38.5436 29.9245 38.5753 31.4869ZM37.0023 26.7666C37.4167 28.181 37.6672 29.7818 37.7032 31.4869H35.8209C34.1587 30.8509 32.8345 29.553 32.1857 27.924V26.0797C33.9256 26.115 35.559 26.3605 37.0023 26.7666ZM37.7015 26.0814C38.6068 26.3641 39.4397 26.71 40.1802 27.1091C41.0968 27.6031 41.8885 28.1895 42.4964 28.8502C41.4318 25.2576 38.5421 22.4258 34.8762 21.3824C35.5504 21.9782 36.1487 22.754 36.6529 23.6523C37.0601 24.3779 37.413 25.1942 37.7015 26.0814ZM32.1857 20.9786C33.5617 21.1684 34.8719 22.2519 35.8889 24.0641C36.1839 24.5898 36.4501 25.1705 36.6821 25.7975C35.2992 25.457 33.78 25.2562 32.1857 25.2251V20.9786Z" fill="#250A63"/>
</g>
<defs>
<clipPath id="clip0_612_47688">
<rect width="24.4844" height="23.6401" fill="white" transform="translate(19.374 20.0941)"/>
</clipPath>
</defs>
</svg>
